<?xml version="1.0" encoding="utf-8"?>
<!-- Generator: Adobe Illustrator 19.0.0, SVG Export Plug-In . SVG Version: 6.00 Build 0)  -->
<svg version="1.1" id="Layer_1" xmlns="http://www.w3.org/2000/svg" xmlns:xlink="http://www.w3.org/1999/xlink" x="0px" y="0px"
	 viewBox="0 0 72 72" style="enable-background:new 0 0 72 72;" xml:space="preserve">
<style type="text/css">
	.st0{fill:#FF6348;}
	.st1{fill:none;}
	.st2{fill:#F94730;}
</style>
<path id="XMLID_21_" class="st0" d="M48.7,59.8c1.9,0,3.6,0.8,4.7,2.1v-8.2h0h-9.3v7.1v1.2C45.2,60.6,46.8,59.8,48.7,59.8z"/>
<ellipse id="XMLID_12_" class="st1" cx="32.2" cy="27.9" rx="11.9" ry="11.9"/>
<path id="XMLID_20_" class="st0" d="M53.4,25.5L53.4,25.5c0-0.1,0-0.2,0-0.3C53.4,13.5,43.9,4,32.2,4c-11.7,0-21.2,9.5-21.2,21.2
	s9.5,21.2,21.2,21.2c4.4,0,8.5-1.3,11.9-3.6v11h9.3V25.5z M32.2,38c-6.6,0-11.9-5.3-11.9-11.9s5.3-11.9,11.9-11.9
	s11.9,5.3,11.9,11.9S38.7,38,32.2,38z"/>
<ellipse id="XMLID_25_" class="st2" cx="48.7" cy="65.5" rx="3.5" ry="3.3"/>
<rect id="XMLID_1_" x="44.1" y="52.8" class="st0" width="9.3" height="1.7"/>
</svg>
